<svg width="21" height="21" viewBox="0 0 21 21" fill="none" xmlns="http://www.w3.org/2000/svg">
<g clip-path="url(#clip0_1019_707)">
<path d="M20.4085 16.238C20.4085 18.5451 18.5451 20.4085 16.238 20.4085H4.17042C1.86338 20.4085 0 18.5451 0 16.238V4.17042C0 1.86338 1.86338 0 4.17042 0H16.238C18.5451 0 20.4085 1.86338 20.4085 4.17042V16.238Z" fill="#C38F05"/>
<path d="M10.3817 2.66211C6.21132 2.66211 2.92822 6.03394 2.92822 10.1156C2.92822 11.5353 3.28315 12.7776 3.99301 13.9311L3.01696 17.7466L6.74372 16.6818C7.8085 17.303 9.05076 17.6579 10.3817 17.6579C14.4634 17.6579 17.8353 14.2861 17.8353 10.2044C17.8353 6.03394 14.4634 2.66211 10.3817 2.66211ZM10.4705 16.4156C9.13949 16.4156 7.98597 15.972 6.92118 15.3508L4.7916 15.972L5.324 13.6649C4.61414 12.6889 4.25921 11.4466 4.25921 10.1156C4.25921 6.65507 7.00991 3.90436 10.4705 3.90436C13.931 3.90436 16.6817 6.65507 16.6817 10.1156C16.6817 13.5762 13.8423 16.4156 10.4705 16.4156Z" fill="white"/>
<path d="M8.51827 9.58327C8.607 9.49454 8.69573 9.4058 8.78447 9.31707C8.96193 9.13961 9.1394 8.96214 9.1394 8.78468C9.1394 8.51848 9.05066 8.34101 8.96193 8.07482C8.8732 7.89735 8.8732 7.71989 8.78447 7.63116C8.69573 7.36496 8.607 7.01003 8.42954 6.83256C8.25207 6.6551 7.89714 6.6551 7.71968 6.74383C7.71968 6.74383 6.21123 7.45369 6.74362 8.87341C6.74362 8.87341 7.63095 12.8664 11.9788 13.665C11.9788 13.665 13.576 13.9312 14.0197 12.9551C14.1084 12.7776 14.1971 12.4227 14.1971 12.2452C14.1971 12.0678 14.0197 11.8903 13.8422 11.8016C13.576 11.7128 13.3986 11.5354 13.1324 11.4466C12.8662 11.3579 12.6 11.1805 12.3338 11.2692C12.1563 11.3579 11.9788 11.5354 11.8901 11.6241C11.7126 11.8016 11.5352 11.979 11.3577 12.1565C11.269 12.0678 9.05066 11.1805 8.51827 9.58327Z" fill="white"/>
</g>
<defs>
<clipPath id="clip0_1019_707">
<rect width="20.4085" height="20.4085" fill="white"/>
</clipPath>
</defs>
</svg>
