<svg width="19" height="19" viewBox="0 0 19 19" fill="none" xmlns="http://www.w3.org/2000/svg">
<g clip-path="url(#clip0_1142_954)">
<path d="M18.8667 15.0113C18.8667 17.144 17.144 18.8667 15.0113 18.8667H3.85536C1.72261 18.8667 0 17.144 0 15.0113V3.85536C0 1.72261 1.72261 0 3.85536 0H15.0113C17.144 0 18.8667 1.72261 18.8667 3.85536V15.0113Z" fill="#252855"/>
<path d="M12.2225 2.29695H6.72656C4.26569 2.29695 2.297 4.26565 2.297 6.72651V12.2225C2.297 14.6833 4.26569 16.652 6.72656 16.652H12.2225C14.6834 16.652 16.6521 14.6833 16.6521 12.2225V6.72651C16.57 4.26565 14.6013 2.29695 12.2225 2.29695ZM15.1755 11.6482C15.1755 13.6169 13.617 15.1755 11.6483 15.1755H7.21873C5.25004 15.1755 3.69149 13.6169 3.69149 11.6482V7.21869C3.69149 5.24999 5.25004 3.69144 7.21873 3.69144H11.6483C13.617 3.69144 15.1755 5.24999 15.1755 7.21869V11.6482Z" fill="white"/>
<path d="M9.67958 5.74234C7.62886 5.74234 5.90625 7.38292 5.90625 9.51567C5.90625 11.5664 7.54683 13.289 9.67958 13.289C11.7303 13.289 13.4529 11.5664 13.4529 9.51567C13.3709 7.38292 11.7303 5.74234 9.67958 5.74234ZM9.67958 11.7305C8.44915 11.7305 7.38277 10.7461 7.38277 9.43364C7.38277 8.20321 8.36712 7.13683 9.67958 7.13683C10.91 7.13683 11.9764 8.12118 11.9764 9.43364C11.8944 10.7461 10.91 11.7305 9.67958 11.7305Z" fill="white"/>
<path d="M14.1092 5.66002C14.1092 6.1522 13.6991 6.64437 13.1248 6.64437C12.6327 6.64437 12.1405 6.23422 12.1405 5.66002C12.1405 5.16785 12.5506 4.67567 13.1248 4.67567C13.6991 4.67567 14.1092 5.16785 14.1092 5.66002Z" fill="white"/>
</g>
<defs>
<clipPath id="clip0_1142_954">
<rect width="18.8667" height="18.8667" fill="white"/>
</clipPath>
</defs>
</svg>
