<svg width="19" height="19" viewBox="0 0 19 19" fill="none" xmlns="http://www.w3.org/2000/svg">
<g clip-path="url(#clip0_1131_1650)">
<path d="M18.8667 15.0113C18.8667 17.144 17.144 18.8667 15.0113 18.8667H3.85536C1.72261 18.8667 0 17.144 0 15.0113V3.85536C0 1.72261 1.72261 0 3.85536 0H15.0113C17.144 0 18.8667 1.72261 18.8667 3.85536V15.0113Z" fill="#252855"/>
<path d="M9.59746 2.46094C5.7421 2.46094 2.70703 5.57804 2.70703 9.35137C2.70703 10.6638 3.03515 11.8122 3.69138 12.8786L2.78906 16.4059L6.23427 15.4215C7.21862 15.9957 8.36703 16.3238 9.59746 16.3238C13.3708 16.3238 16.4879 13.2067 16.4879 9.4334C16.4879 5.57804 13.3708 2.46094 9.59746 2.46094ZM9.67949 15.1754C8.44906 15.1754 7.38268 14.7653 6.39833 14.1911L4.42964 14.7653L4.92181 12.6325C4.26558 11.7302 3.93747 10.5818 3.93747 9.35137C3.93747 6.15224 6.48036 3.60934 9.67949 3.60934C12.8786 3.60934 15.4215 6.15224 15.4215 9.35137C15.4215 12.5505 12.7966 15.1754 9.67949 15.1754Z" fill="white"/>
<path d="M7.87444 8.85898C7.95647 8.77695 8.0385 8.69492 8.12053 8.6129C8.28459 8.44884 8.44865 8.28478 8.44865 8.12072C8.44865 7.87463 8.36662 7.71058 8.28459 7.46449C8.20256 7.30043 8.20256 7.13638 8.12053 7.05435C8.0385 6.80826 7.95647 6.48014 7.79241 6.31609C7.62836 6.15203 7.30024 6.15203 7.13618 6.23406C7.13618 6.23406 5.74169 6.89029 6.23386 8.20275C6.23386 8.20275 7.05415 11.8941 11.0736 12.6323C11.0736 12.6323 12.5501 12.8784 12.9602 11.9761C13.0423 11.812 13.1243 11.4839 13.1243 11.3198C13.1243 11.1558 12.9602 10.9917 12.7962 10.9097C12.5501 10.8277 12.386 10.6636 12.1399 10.5816C11.8939 10.4996 11.6478 10.3355 11.4017 10.4175C11.2376 10.4996 11.0736 10.6636 10.9915 10.7456C10.8275 10.9097 10.6634 11.0738 10.4994 11.2378C10.4173 11.1558 8.36662 10.3355 7.87444 8.85898Z" fill="white"/>
</g>
<defs>
<clipPath id="clip0_1131_1650">
<rect width="18.8667" height="18.8667" fill="white"/>
</clipPath>
</defs>
</svg>
