<svg width="19" height="19" viewBox="0 0 19 19" fill="none" xmlns="http://www.w3.org/2000/svg">
<g clip-path="url(#clip0_1142_948)">
<path d="M18.8667 15.0113C18.8667 17.144 17.144 18.8667 15.0113 18.8667H3.85536C1.72261 18.8667 0 17.144 0 15.0113V3.85536C0 1.72261 1.72261 0 3.85536 0H15.0113C17.144 0 18.8667 1.72261 18.8667 3.85536V15.0113Z" fill="#252855"/>
<path d="M2.87084 7.13688H5.74185V16.2421H2.87084V7.13688ZM4.26533 2.62529C5.16765 2.62529 5.90591 3.36355 5.90591 4.26587C5.90591 5.16819 5.16765 5.90645 4.26533 5.90645C3.36302 5.90645 2.62476 5.16819 2.62476 4.26587C2.62476 3.36355 3.36302 2.62529 4.26533 2.62529Z" fill="white"/>
<path d="M7.46387 7.13718H10.1708V8.36762C10.581 7.62936 11.4833 6.8911 12.8778 6.8911C15.7488 6.8911 16.241 8.77776 16.241 11.2386V16.2424H13.3699V11.8128C13.3699 10.7465 13.3699 9.35197 11.8934 9.35197C10.4169 9.35197 10.1708 10.5004 10.1708 11.7308V16.2424H7.46387V7.13718Z" fill="white"/>
</g>
<defs>
<clipPath id="clip0_1142_948">
<rect width="18.8667" height="18.8667" fill="white"/>
</clipPath>
</defs>
</svg>
