<svg width="21" height="21" viewBox="0 0 21 21" fill="none" xmlns="http://www.w3.org/2000/svg">
<g clip-path="url(#clip0_1019_720)">
<path d="M20.4085 16.238C20.4085 18.5451 18.5451 20.4085 16.238 20.4085H4.17042C1.86338 20.4085 0 18.5451 0 16.238V4.17042C0 1.86338 1.86338 0 4.17042 0H16.238C18.5451 0 20.4085 1.86338 20.4085 4.17042V16.238Z" fill="#C38F05"/>
<path d="M13.2212 2.48438H7.27611C4.61414 2.48438 2.48456 4.61395 2.48456 7.27592V13.221C2.48456 15.883 4.61414 18.0125 7.27611 18.0125H13.2212C15.8831 18.0125 18.0127 15.883 18.0127 13.221V7.27592C17.924 4.61395 15.7944 2.48438 13.2212 2.48438ZM16.4155 12.5999C16.4155 14.7294 14.7296 16.4154 12.6 16.4154H7.8085C5.67892 16.4154 3.99301 14.7294 3.99301 12.5999V7.80832C3.99301 5.67874 5.67892 3.99283 7.8085 3.99283H12.6C14.7296 3.99283 16.4155 5.67874 16.4155 7.80832V12.5999Z" fill="white"/>
<path d="M10.4703 6.21143C8.25202 6.21143 6.38864 7.98607 6.38864 10.2931C6.38864 12.5114 8.16329 14.3748 10.4703 14.3748C12.6886 14.3748 14.552 12.5114 14.552 10.2931C14.4633 7.98607 12.6886 6.21143 10.4703 6.21143ZM10.4703 12.6889C9.13935 12.6889 7.98582 11.6241 7.98582 10.2044C7.98582 8.8734 9.05061 7.71988 10.4703 7.71988C11.8013 7.71988 12.9548 8.78467 12.9548 10.2044C12.8661 11.6241 11.8013 12.6889 10.4703 12.6889Z" fill="white"/>
<path d="M15.262 6.12241C15.262 6.6548 14.8183 7.1872 14.1972 7.1872C13.6648 7.1872 13.1324 6.74353 13.1324 6.12241C13.1324 5.59001 13.576 5.05762 14.1972 5.05762C14.8183 5.05762 15.262 5.59001 15.262 6.12241Z" fill="white"/>
</g>
<defs>
<clipPath id="clip0_1019_720">
<rect width="20.4085" height="20.4085" fill="white"/>
</clipPath>
</defs>
</svg>
