<svg width="21" height="21" viewBox="0 0 21 21" fill="none" xmlns="http://www.w3.org/2000/svg">
<g clip-path="url(#clip0_1019_714)">
<path d="M20.4085 16.238C20.4085 18.5451 18.5451 20.4085 16.238 20.4085H4.17042C1.86338 20.4085 0 18.5451 0 16.238V4.17042C0 1.86338 1.86338 0 4.17042 0H16.238C18.5451 0 20.4085 1.86338 20.4085 4.17042V16.238Z" fill="#C38F05"/>
<path d="M3.10546 7.72013H6.2111V17.5694H3.10546V7.72013ZM4.61391 2.83984C5.58997 2.83984 6.38856 3.63844 6.38856 4.61449C6.38856 5.59055 5.58997 6.38914 4.61391 6.38914C3.63786 6.38914 2.83926 5.59055 2.83926 4.61449C2.83926 3.63844 3.63786 2.83984 4.61391 2.83984Z" fill="white"/>
<path d="M8.07431 7.7203H11.0025V9.05128C11.4461 8.25269 12.4222 7.4541 13.9306 7.4541C17.0363 7.4541 17.5687 9.49495 17.5687 12.1569V17.5696H14.463V12.778C14.463 11.6245 14.463 10.1161 12.8659 10.1161C11.2687 10.1161 11.0025 11.3583 11.0025 12.6893V17.5696H8.07431V7.7203Z" fill="white"/>
</g>
<defs>
<clipPath id="clip0_1019_714">
<rect width="20.4085" height="20.4085" fill="white"/>
</clipPath>
</defs>
</svg>
